<svg xmlns="http://www.w3.org/2000/svg" viewBox="0 0 384 512" role="img" aria-label="Apple logo">
  <path fill="#ffffff" d="M318.7 268.7c-.2-36.7 16.4-64.4 50-84.8-18.8-26.9-47.2-41.7-84.7-44.6-35.5-2.8-74.3 20.7-88.5 20.7-15 0-49.4-19.7-76.4-19.7C59.4 141.2 0 188.1 0 283.4c0 28.2 5.2 57.3 15.5 87.2 13.8 39.7 63.5 137.2 115.4 135.6 27.2-.6 46.4-19.3 81.8-19.3 34.3 0 52.1 19.3 82.3 19.3 52.3-.8 97.3-89.3 110.4-129.2-70.2-33.1-86.5-94-86.7-108.3zM262.1 104.5C289.4 72.1 286.9 42.7 286.1 32c-24.1 1.4-52 16.4-67.9 34.9-17.5 19.8-27.8 44.3-25.6 70.1 26.1 2 49.9-11.4 69.5-32.5z"/>
</svg>
