<svg xmlns="http://www.w3.org/2000/svg" viewBox="0 0 48 48" role="img" aria-label="Google logo">
  <path fill="#FFC107" d="M43.611 20.083H42V20H24v8h11.303C33.699 32.657 29.268 36 24 36c-7.18 0-13-5.82-13-13S16.82 10 24 10c3.24 0 6.202 1.188 8.477 3.15l5.657-5.657C34.498 4.176 29.532 2 24 2 12.402 2 3 11.402 3 23s9.402 21 21 21 21-9.402 21-21c0-1.414-.146-2.795-.389-4.917z"/>
  <path fill="#FF3D00" d="M6.306 14.691l6.571 4.819C14.655 14.866 19.155 11 24 11c3.24 0 6.202 1.188 8.477 3.15l5.657-5.657C34.498 5.176 29.532 3 24 3 16.318 3 9.656 7.337 6.306 14.691z"/>
  <path fill="#4CAF50" d="M24 45c5.421 0 10.393-2.066 14.108-5.455l-6.518-5.514C29.432 35.66 26.775 36.6 24 36.6c-5.18 0-9.579-3.294-11.206-7.9l-6.531 5.033C9.574 40.658 16.144 45 24 45z"/>
  <path fill="#1976D2" d="M43.611 20.083H42V20H24v8h11.303a12.04 12.04 0 0 1-4.115 5.412l.003-.002 6.518 5.514C37.246 39.345 45 33.5 45 23c0-1.414-.146-2.795-.389-4.917z"/>
</svg>
